<svg width="28" height="28" viewBox="0 0 28 28" fill="none" xmlns="http://www.w3.org/2000/svg">
<path d="M15.5 11C15.1022 11 14.7206 10.842 14.4393 10.5607C14.158 10.2794 14 9.89782 14 9.5C14 9.10218 14.158 8.72064 14.4393 8.43934C14.7206 8.15804 15.1022 8 15.5 8C15.8978 8 16.2794 8.15804 16.5607 8.43934C16.842 8.72064 17 9.10218 17 9.5C17 9.89782 16.842 10.2794 16.5607 10.5607C16.2794 10.842 15.8978 11 15.5 11Z" fill="#D8D8FF"/>
<path d="M21 4H7C6.20508 4.00237 5.4434 4.31921 4.8813 4.8813C4.31921 5.4434 4.00237 6.20508 4 7V15.86L7.88 11.98C8.4517 11.4359 9.21074 11.1324 10 11.1324C10.7893 11.1324 11.5483 11.4359 12.12 11.98L14.991 14.867L15.879 13.979C16.4426 13.4185 17.2052 13.1039 18 13.1039C18.7948 13.1039 19.5574 13.4185 20.121 13.979L24 17.86V7C23.9976 6.20508 23.6808 5.4434 23.1187 4.8813C22.5566 4.31921 21.7949 4.00237 21 4ZM15.5 11C15.1022 11 14.7206 10.842 14.4393 10.5607C14.158 10.2794 14 9.89782 14 9.5C14 9.10218 14.158 8.72064 14.4393 8.43934C14.7206 8.15804 15.1022 8 15.5 8C15.8978 8 16.2794 8.15804 16.5607 8.43934C16.842 8.72064 17 9.10218 17 9.5C17 9.89782 16.842 10.2794 16.5607 10.5607C16.2794 10.842 15.8978 11 15.5 11Z" fill="#B2B1FF"/>
<path d="M12.12 11.98C11.5483 11.4359 10.7893 11.1324 10 11.1324C9.21074 11.1324 8.4517 11.4359 7.88 11.98L4 15.86V21C4.00237 21.7949 4.31921 22.5566 4.8813 23.1187C5.4434 23.6808 6.20508 23.9976 7 24H21C21.815 24 22.595 23.667 23.16 23.08L12.12 11.98Z" fill="#6563FF"/>
<path d="M24 17.858L20.121 13.979C19.5574 13.4185 18.7948 13.1039 18 13.1039C17.2052 13.1039 16.4426 13.4185 15.879 13.979L14.991 14.867L23.156 23.076C23.698 22.521 24.001 21.776 24 21V17.858Z" fill="#D8D8FF"/>
<path d="M8.58333 1H5.33333C2.9401 1 1 2.9401 1 5.33333V7.5M1 20.5V22.6667C1 25.0599 2.9401 27 5.33333 27H8.58333M19.4167 27H22.6667C25.0599 27 27 25.0599 27 22.6667V20.5M27 7.5V5.33333C27 2.9401 25.0599 1 22.6667 1H19.4167" stroke="#3F9BBC" stroke-width="2"/>
</svg>
