<svg width="26" height="26" viewBox="0 0 26 26" fill="none" xmlns="http://www.w3.org/2000/svg">
<path d="M14.5 10C14.1022 10 13.7206 9.84196 13.4393 9.56066C13.158 9.27936 13 8.89782 13 8.5C13 8.10218 13.158 7.72064 13.4393 7.43934C13.7206 7.15804 14.1022 7 14.5 7C14.8978 7 15.2794 7.15804 15.5607 7.43934C15.842 7.72064 16 8.10218 16 8.5C16 8.89782 15.842 9.27936 15.5607 9.56066C15.2794 9.84196 14.8978 10 14.5 10Z" fill="#D8D8FF"/>
<path d="M20 3H6C5.20508 3.00237 4.4434 3.31921 3.8813 3.8813C3.31921 4.4434 3.00237 5.20508 3 6V14.86L6.88 10.98C7.4517 10.4359 8.21074 10.1324 9 10.1324C9.78926 10.1324 10.5483 10.4359 11.12 10.98L13.991 13.867L14.879 12.979C15.4426 12.4185 16.2052 12.1039 17 12.1039C17.7948 12.1039 18.5574 12.4185 19.121 12.979L23 16.86V6C22.9976 5.20508 22.6808 4.4434 22.1187 3.8813C21.5566 3.31921 20.7949 3.00237 20 3ZM14.5 10C14.1022 10 13.7206 9.84196 13.4393 9.56066C13.158 9.27936 13 8.89782 13 8.5C13 8.10218 13.158 7.72064 13.4393 7.43934C13.7206 7.15804 14.1022 7 14.5 7C14.8978 7 15.2794 7.15804 15.5607 7.43934C15.842 7.72064 16 8.10218 16 8.5C16 8.89782 15.842 9.27936 15.5607 9.56066C15.2794 9.84196 14.8978 10 14.5 10Z" fill="#B2B1FF"/>
<path d="M11.12 10.98C10.5483 10.4359 9.78926 10.1324 9 10.1324C8.21074 10.1324 7.4517 10.4359 6.88 10.98L3 14.86V20C3.00237 20.7949 3.31921 21.5566 3.8813 22.1187C4.4434 22.6808 5.20508 22.9976 6 23H20C20.815 23 21.595 22.667 22.16 22.08L11.12 10.98Z" fill="#6563FF"/>
<path d="M23 16.858L19.121 12.979C18.5574 12.4185 17.7948 12.1039 17 12.1039C16.2052 12.1039 15.4426 12.4185 14.879 12.979L13.991 13.867L22.156 22.076C22.698 21.521 23.001 20.776 23 20V16.858Z" fill="#D8D8FF"/>
<path d="M8 1H5C2.79086 1 1 2.79086 1 5V7M1 19V21C1 23.2091 2.79086 25 5 25H8M18 25H21C23.2091 25 25 23.2091 25 21V19M25 7V5C25 2.79086 23.2091 1 21 1H18" stroke="#4947D3" stroke-width="2"/>
</svg>
